# xmcd CD database file
#
# Track frame offsets:
#	150
#	16130
#	32700
#	51279
#	81380
#	100622
#	123592
#	146379
#	157579
#	180785
#	199976
#	212291
#	235808
#	246961
#	262249
#	278937
#	290343
#	303528
#	313208
#	324526
#
# Disc length: 4525 seconds
#
# Revision: 0
# Processed by: cddbd v1.5.1PL0 Copyright (c) Steve Scherf et al.
# Submitted via: CDex 1.51
#
DISCID=1811ab14
DTITLE=Uschi Brüning - Dein Name
DYEAR=2002
DGENRE=Jazz
TTITLE0=I Never Loved A  Man
TTITLE1=Son Of A Preacher Man
TTITLE2=Dein Name
TTITLE3=Eifersucht
TTITLE4=Komm nie wieder
TTITLE5=Jemand
TTITLE6=Reverend Lee
TTITLE7=Ich steig aufs Dach
TTITLE8=Ohne Lieder leben
TTITLE9=Hochzeitsnacht
TTITLE10=Einer wie Du
TTITLE11=Komm in die Stadt
TTITLE12=The Girl From Ipanema
TTITLE13=Walking
TTITLE14=You Are The Sunshine Of My Life
TTITLE15=You Are So Beautiful
TTITLE16=Fool On The Hill
TTITLE17=My Funny Valentine
TTITLE18=Blues für Carmel
TTITLE19=September
EXTD=YEAR: 2002
EXTT0=
EXTT1=
EXTT2=
EXTT3=
EXTT4=
EXTT5=
EXTT6=
EXTT7=
EXTT8=
EXTT9=
EXTT10=
EXTT11=
EXTT12=
EXTT13=
EXTT14=
EXTT15=
EXTT16=
EXTT17=
EXTT18=
EXTT19=
PLAYORDER=
